<svg width="500" height="90" viewBox="0 0 500 90" fill="none" xmlns="http://www.w3.org/2000/svg">
<path d="M48.4766 69.7266C44.9453 69.7266 42.3984 69.2188 40.8359 68.2031C39.2734 67.2031 38.4922 65.3672 38.4922 62.6953V56.2031C38.4922 54.3281 38.125 53.0234 37.3906 52.2891C36.6562 51.5391 35.2656 51.1641 33.2188 51.1641V46.1484C34.6719 46.1328 35.7734 45.9688 36.5234 45.6562C37.2734 45.3281 37.7891 44.8281 38.0703 44.1562C38.3516 43.4688 38.4922 42.4844 38.4922 41.2031V34.3828C38.4922 33.0547 38.6953 31.9531 39.1016 31.0781C39.5078 30.1875 40.1484 29.4922 41.0234 28.9922C41.8984 28.4766 42.9297 28.1172 44.1172 27.9141C45.3047 27.6953 46.7578 27.5859 48.4766 27.5859V32.2734C46.8047 32.2891 45.7031 32.5781 45.1719 33.1406C44.6562 33.7031 44.3984 34.7734 44.3984 36.3516V42.6562C44.3828 44.2344 43.9922 45.4766 43.2266 46.3828C42.4609 47.2734 41.1953 48.0469 39.4297 48.7031C42.7422 49.3906 44.3984 51.3438 44.3984 54.5625V60.9375C44.3984 62.5156 44.6562 63.5859 45.1719 64.1484C45.7031 64.7109 46.8047 65 48.4766 65.0156V69.7266ZM451.555 69.7266V65.0156C453.227 65 454.32 64.7109 454.836 64.1484C455.367 63.6016 455.633 62.5312 455.633 60.9375V54.5625C455.633 52.9375 456.031 51.6797 456.828 50.7891C457.641 49.8828 458.898 49.1797 460.602 48.6797C458.898 48.1484 457.648 47.4141 456.852 46.4766C456.055 45.5234 455.648 44.25 455.633 42.6562V36.3516C455.633 34.7734 455.367 33.7031 454.836 33.1406C454.32 32.5781 453.227 32.2891 451.555 32.2734V27.5859C453.32 27.5859 454.789 27.6875 455.961 27.8906C457.148 28.0938 458.172 28.4609 459.031 28.9922C459.906 29.5078 460.539 30.2266 460.93 31.1484C461.336 32.0547 461.539 33.2031 461.539 34.5938V41.2266C461.539 43.1016 461.891 44.3906 462.594 45.0938C463.312 45.7812 464.727 46.1328 466.836 46.1484V51.1641C464.773 51.1641 463.375 51.5312 462.641 52.2656C461.906 52.9844 461.539 54.2969 461.539 56.2031V62.9062C461.539 65.5 460.758 67.2812 459.195 68.25C457.633 69.2344 455.086 69.7266 451.555 69.7266Z" fill="#0070F3"/>
<path d="M77.5156 63.4922C73.5781 63.4922 70.5078 62.3203 68.3047 59.9766C66.1172 57.6328 65.0234 54.2812 65.0234 49.9219C65.0234 45.7031 66.1719 42.4297 68.4688 40.1016C70.7812 37.7734 73.8203 36.6094 77.5859 36.6094C80.6016 36.6094 83.1484 37.2578 85.2266 38.5547L83.7734 42.9375C81.6484 41.8281 79.6719 41.2734 77.8438 41.2734C75.7656 41.2734 74.125 42.0156 72.9219 43.5C71.7344 44.9844 71.1406 47.1484 71.1406 49.9922C71.1406 52.8672 71.7266 55.0547 72.8984 56.5547C74.0859 58.0547 75.7578 58.8047 77.9141 58.8047C80.1641 58.8047 82.3281 58.1406 84.4062 56.8125L84.9922 61.4766C83.9141 62.1953 82.7969 62.7109 81.6406 63.0234C80.4844 63.3359 79.1094 63.4922 77.5156 63.4922ZM100.906 58.8281C102.984 58.8281 104.547 58.0703 105.594 56.5547C106.641 55.0391 107.164 52.8672 107.164 50.0391C107.164 47.1797 106.641 45 105.594 43.5C104.547 42 102.969 41.25 100.859 41.25C98.7812 41.25 97.2109 42.0078 96.1484 43.5234C95.1016 45.0234 94.5781 47.2031 94.5781 50.0625C94.5781 52.875 95.1094 55.0391 96.1719 56.5547C97.2344 58.0703 98.8125 58.8281 100.906 58.8281ZM100.742 63.4922C96.9297 63.4922 93.9297 62.2578 91.7422 59.7891C89.5547 57.3203 88.4609 54.0703 88.4609 50.0391C88.4609 45.8828 89.5547 42.6094 91.7422 40.2188C93.9297 37.8125 97.0156 36.6094 101 36.6094C104.844 36.6094 107.852 37.8359 110.023 40.2891C112.211 42.7266 113.305 45.9766 113.305 50.0391C113.305 54.1484 112.203 57.4219 110 59.8594C107.797 62.2812 104.711 63.4922 100.742 63.4922ZM127.906 63.4922C124.547 63.4922 121.906 62.2578 119.984 59.7891C118.062 57.3203 117.102 54.0234 117.102 49.8984C117.102 45.8984 118.055 42.6875 119.961 40.2656C121.883 37.8281 124.523 36.6094 127.883 36.6094C131.539 36.6094 134.125 37.9062 135.641 40.5C135.484 38.9688 135.406 37.4922 135.406 36.0703V27.75L141.547 27.3516V63H136.227L135.547 59.4844C135.281 59.9062 135.031 60.2734 134.797 60.5859C134.578 60.8828 134.25 61.2344 133.812 61.6406C133.375 62.0312 132.898 62.3516 132.383 62.6016C131.883 62.8359 131.242 63.0391 130.461 63.2109C129.695 63.3984 128.844 63.4922 127.906 63.4922ZM129.359 58.8281C133.484 58.8281 135.578 56.0234 135.641 50.4141C135.641 47.2422 135.109 44.9297 134.047 43.4766C132.984 42.0234 131.398 41.2969 129.289 41.2969C127.445 41.2969 125.969 42.0391 124.859 43.5234C123.766 44.9922 123.219 47.1641 123.219 50.0391C123.219 52.8984 123.766 55.0781 124.859 56.5781C125.969 58.0781 127.469 58.8281 129.359 58.8281ZM159.711 63.4922C155.57 63.4922 152.344 62.3047 150.031 59.9297C147.734 57.5391 146.586 54.2422 146.586 50.0391C146.586 45.9453 147.672 42.6875 149.844 40.2656C152.016 37.8438 154.977 36.625 158.727 36.6094C162.273 36.6094 165.023 37.7188 166.977 39.9375C168.945 42.1562 169.93 45.1016 169.93 48.7734C169.93 49.0391 169.922 49.4688 169.906 50.0625C169.906 50.6562 169.906 51.0938 169.906 51.375H152.773C152.836 53.7812 153.492 55.6484 154.742 56.9766C156.008 58.2891 157.742 58.9453 159.945 58.9453C162.758 58.9453 165.461 58.2109 168.055 56.7422L168.922 61.1016C166.344 62.6953 163.273 63.4922 159.711 63.4922ZM152.891 47.5078H164.141C164.141 45.4141 163.664 43.8047 162.711 42.6797C161.758 41.5547 160.438 40.9922 158.75 40.9922C157.172 40.9922 155.836 41.5391 154.742 42.6328C153.664 43.7266 153.047 45.3516 152.891 47.5078ZM186.172 58.8281C188.25 58.8281 189.812 58.0703 190.859 56.5547C191.906 55.0391 192.43 52.8672 192.43 50.0391C192.43 47.1797 191.906 45 190.859 43.5C189.812 42 188.234 41.25 186.125 41.25C184.047 41.25 182.477 42.0078 181.414 43.5234C180.367 45.0234 179.844 47.2031 179.844 50.0625C179.844 52.875 180.375 55.0391 181.438 56.5547C182.5 58.0703 184.078 58.8281 186.172 58.8281ZM186.008 63.4922C182.195 63.4922 179.195 62.2578 177.008 59.7891C174.82 57.3203 173.727 54.0703 173.727 50.0391C173.727 45.8828 174.82 42.6094 177.008 40.2188C179.195 37.8125 182.281 36.6094 186.266 36.6094C190.109 36.6094 193.117 37.8359 195.289 40.2891C197.477 42.7266 198.57 45.9766 198.57 50.0391C198.57 54.1484 197.469 57.4219 195.266 59.8594C193.062 62.2812 189.977 63.4922 186.008 63.4922ZM203.586 63V37.2422H208.531L209.211 40.5C211.836 37.9062 214.75 36.6094 217.953 36.6094C220.953 36.6094 223.195 37.4766 224.68 39.2109C226.18 40.9297 226.93 43.4297 226.93 46.7109V63H220.766V47.4609C220.75 45.3828 220.414 43.8281 219.758 42.7969C219.102 41.7656 217.922 41.25 216.219 41.25C214.891 41.25 213.672 41.5938 212.562 42.2812C211.469 42.9531 210.672 43.8047 210.172 44.8359C209.875 46.0547 209.727 47.9297 209.727 50.4609V63H203.586ZM237.969 63L230.164 37.2422H236.422L241.367 56.1328C241.477 55.7734 242.367 52.7031 244.039 46.9219C245.711 41.1406 246.656 37.9141 246.875 37.2422H253.18C253.383 37.8984 254.281 41.0938 255.875 46.8281C257.469 52.5625 258.328 55.6406 258.453 56.0625L263.539 37.2422H269.703L261.641 63H255.523C255.32 62.3281 254.367 58.9297 252.664 52.8047C250.977 46.6797 250.062 43.375 249.922 42.8906C249.609 44.0312 248.609 47.4688 246.922 53.2031C245.25 58.9375 244.281 62.2031 244.016 63H237.969ZM284.914 63.4922C280.773 63.4922 277.547 62.3047 275.234 59.9297C272.938 57.5391 271.789 54.2422 271.789 50.0391C271.789 45.9453 272.875 42.6875 275.047 40.2656C277.219 37.8438 280.18 36.625 283.93 36.6094C287.477 36.6094 290.227 37.7188 292.18 39.9375C294.148 42.1562 295.133 45.1016 295.133 48.7734C295.133 49.0391 295.125 49.4688 295.109 50.0625C295.109 50.6562 295.109 51.0938 295.109 51.375H277.977C278.039 53.7812 278.695 55.6484 279.945 56.9766C281.211 58.2891 282.945 58.9453 285.148 58.9453C287.961 58.9453 290.664 58.2109 293.258 56.7422L294.125 61.1016C291.547 62.6953 288.477 63.4922 284.914 63.4922ZM278.094 47.5078H289.344C289.344 45.4141 288.867 43.8047 287.914 42.6797C286.961 41.5547 285.641 40.9922 283.953 40.9922C282.375 40.9922 281.039 41.5391 279.945 42.6328C278.867 43.7266 278.25 45.3516 278.094 47.5078ZM312.055 63.4922C307.914 63.4922 304.688 62.3047 302.375 59.9297C300.078 57.5391 298.93 54.2422 298.93 50.0391C298.93 45.9453 300.016 42.6875 302.188 40.2656C304.359 37.8438 307.32 36.625 311.07 36.6094C314.617 36.6094 317.367 37.7188 319.32 39.9375C321.289 42.1562 322.273 45.1016 322.273 48.7734C322.273 49.0391 322.266 49.4688 322.25 50.0625C322.25 50.6562 322.25 51.0938 322.25 51.375H305.117C305.18 53.7812 305.836 55.6484 307.086 56.9766C308.352 58.2891 310.086 58.9453 312.289 58.9453C315.102 58.9453 317.805 58.2109 320.398 56.7422L321.266 61.1016C318.688 62.6953 315.617 63.4922 312.055 63.4922ZM305.234 47.5078H316.484C316.484 45.4141 316.008 43.8047 315.055 42.6797C314.102 41.5547 312.781 40.9922 311.094 40.9922C309.516 40.9922 308.18 41.5391 307.086 42.6328C306.008 43.7266 305.391 45.3516 305.234 47.5078ZM327.289 63V27.75L333.43 27.3516V43.1719L333.289 48.375C333.305 48.3594 333.461 48.2031 333.758 47.9062C334.07 47.6094 334.242 47.4453 334.273 47.4141C335.133 46.3984 336.062 45.3516 337.062 44.2734C338.078 43.1953 339.352 41.875 340.883 40.3125C342.43 38.75 343.438 37.7266 343.906 37.2422H351.219L340.625 48.2109L351.898 63H344.469L335.984 51.3047L333.43 53.3203V63H327.289ZM365.82 63.4922C361.68 63.4922 358.453 62.3047 356.141 59.9297C353.844 57.5391 352.695 54.2422 352.695 50.0391C352.695 45.9453 353.781 42.6875 355.953 40.2656C358.125 37.8438 361.086 36.625 364.836 36.6094C368.383 36.6094 371.133 37.7188 373.086 39.9375C375.055 42.1562 376.039 45.1016 376.039 48.7734C376.039 49.0391 376.031 49.4688 376.016 50.0625C376.016 50.6562 376.016 51.0938 376.016 51.375H358.883C358.945 53.7812 359.602 55.6484 360.852 56.9766C362.117 58.2891 363.852 58.9453 366.055 58.9453C368.867 58.9453 371.57 58.2109 374.164 56.7422L375.031 61.1016C372.453 62.6953 369.383 63.4922 365.82 63.4922ZM359 47.5078H370.25C370.25 45.4141 369.773 43.8047 368.82 42.6797C367.867 41.5547 366.547 40.9922 364.859 40.9922C363.281 40.9922 361.945 41.5391 360.852 42.6328C359.773 43.7266 359.156 45.3516 359 47.5078ZM381.055 63V37.2422H386L386.68 40.5C389.305 37.9062 392.219 36.6094 395.422 36.6094C398.422 36.6094 400.664 37.4766 402.148 39.2109C403.648 40.9297 404.398 43.4297 404.398 46.7109V63H398.234V47.4609C398.219 45.3828 397.883 43.8281 397.227 42.7969C396.57 41.7656 395.391 41.25 393.688 41.25C392.359 41.25 391.141 41.5938 390.031 42.2812C388.938 42.9531 388.141 43.8047 387.641 44.8359C387.344 46.0547 387.195 47.9297 387.195 50.4609V63H381.055ZM420.031 63.4922C416.672 63.4922 414.031 62.2578 412.109 59.7891C410.188 57.3203 409.227 54.0234 409.227 49.8984C409.227 45.8984 410.18 42.6875 412.086 40.2656C414.008 37.8281 416.648 36.6094 420.008 36.6094C423.664 36.6094 426.25 37.9062 427.766 40.5C427.609 38.9688 427.531 37.4922 427.531 36.0703V27.75L433.672 27.3516V63H428.352L427.672 59.4844C427.406 59.9062 427.156 60.2734 426.922 60.5859C426.703 60.8828 426.375 61.2344 425.938 61.6406C425.5 62.0312 425.023 62.3516 424.508 62.6016C424.008 62.8359 423.367 63.0391 422.586 63.2109C421.82 63.3984 420.969 63.4922 420.031 63.4922ZM421.484 58.8281C425.609 58.8281 427.703 56.0234 427.766 50.4141C427.766 47.2422 427.234 44.9297 426.172 43.4766C425.109 42.0234 423.523 41.2969 421.414 41.2969C419.57 41.2969 418.094 42.0391 416.984 43.5234C415.891 44.9922 415.344 47.1641 415.344 50.0391C415.344 52.8984 415.891 55.0781 416.984 56.5781C418.094 58.0781 419.594 58.8281 421.484 58.8281Z" fill="#111418"/>
</svg>
